<svg xmlns="http://www.w3.org/2000/svg" xmlns:xlink="http://www.w3.org/1999/xlink" version="1.1" width="256" height="256" viewBox="0 0 256 256" xml:space="preserve">

<defs>
</defs>
<g style="stroke: none; stroke-width: 0; stroke-dasharray: none; stroke-linecap: butt; stroke-linejoin: miter; stroke-miterlimit: 10; fill: none; fill-rule: nonzero; opacity: 1;" transform="translate(1.4065934065934016 1.4065934065934016) scale(2.81 2.81)" >
	<path d="M 31.654 69.801 c -1.513 0 -3.026 -0.575 -4.178 -1.728 l -5.549 -5.55 c -2.303 -2.304 -2.303 -6.052 0 -8.355 l 16.169 -16.169 c 2.304 -2.304 6.052 -2.304 8.355 0 l 2.774 2.774 c 0.781 0.781 0.781 2.047 0 2.828 c -0.781 0.781 -2.047 0.781 -2.828 0 l -2.774 -2.774 c -0.744 -0.744 -1.955 -0.744 -2.699 0 L 24.755 56.996 c -0.744 0.744 -0.744 1.955 0 2.699 l 5.549 5.55 c 0.743 0.744 1.955 0.744 2.699 0 l 8.195 -8.195 c 0.78 -0.781 2.048 -0.781 2.828 0 c 0.781 0.781 0.781 2.047 0 2.828 l -8.195 8.195 C 34.681 69.226 33.167 69.801 31.654 69.801 z" style="stroke: none; stroke-width: 1; stroke-dasharray: none; stroke-linecap: butt; stroke-linejoin: miter; stroke-miterlimit: 10; fill: rgb(0,0,0); fill-rule: nonzero; opacity: 1;" transform=" matrix(1 0 0 1 0 0) " stroke-linecap="round" />
	<path d="M 47.726 53.729 c -1.513 0 -3.026 -0.575 -4.178 -1.728 l -2.775 -2.775 c -0.781 -0.781 -0.781 -2.048 0 -2.828 c 0.781 -0.781 2.047 -0.781 2.829 0 l 2.774 2.775 c 0.744 0.744 1.955 0.744 2.699 0 l 16.17 -16.17 c 0.744 -0.744 0.744 -1.955 0 -2.7 l -5.55 -5.548 c -0.744 -0.745 -1.955 -0.745 -2.699 0 l -8.195 8.195 c -0.781 0.781 -2.047 0.781 -2.828 0 c -0.781 -0.781 -0.781 -2.047 0 -2.828 l 8.195 -8.195 c 2.303 -2.304 6.053 -2.304 8.355 0 l 5.55 5.548 c 2.304 2.305 2.304 6.053 0 8.356 l -16.17 16.17 C 50.752 53.154 49.238 53.729 47.726 53.729 z" style="stroke: none; stroke-width: 1; stroke-dasharray: none; stroke-linecap: butt; stroke-linejoin: miter; stroke-miterlimit: 10; fill: rgb(0,0,0); fill-rule: nonzero; opacity: 1;" transform=" matrix(1 0 0 1 0 0) " stroke-linecap="round" />
	<path d="M 45 90 C 20.187 90 0 69.813 0 45 C 0 20.187 20.187 0 45 0 c 24.813 0 45 20.187 45 45 C 90 69.813 69.813 90 45 90 z M 45 4 C 22.393 4 4 22.393 4 45 s 18.393 41 41 41 s 41 -18.393 41 -41 S 67.607 4 45 4 z" style="stroke: none; stroke-width: 1; stroke-dasharray: none; stroke-linecap: butt; stroke-linejoin: miter; stroke-miterlimit: 10; fill: rgb(0,0,0); fill-rule: nonzero; opacity: 1;" transform=" matrix(1 0 0 1 0 0) " stroke-linecap="round" />
</g>
</svg>